<svg id="Layer_2" data-name="Layer 2" xmlns="http://www.w3.org/2000/svg" viewBox="0 0 680.5 210.97"><title>HELL</title><path d="M427.7,431.5q10,0,10,18t-10.19,18q-10.18,0-10.19-17.86Q417.33,431.5,427.7,431.5Zm-.27,3.9q-5.93,0-5.92,14.14t6,14q6,0,6-13.9Q433.53,435.4,427.43,435.4Z" transform="translate(-371.6 -381.5)"/><path d="M441,467.16V431.82h6.19L451,459.18l3.85-27.36h6.2v35.34h-3.63V435l-4.68,32.17h-3.49L444.59,435v32.17Z" transform="translate(-371.6 -381.5)"/><path d="M464.6,467.16v-35h8.77q6.28,0,8.63,2.3a9.34,9.34,0,0,1,2.85,6.93q0,9.92-10.7,9.91h-5.46v15.88Zm4.09-19.64h4.45q7.53,0,7.53-5.88a6,6,0,0,0-1.15-3.94c-.95-1.2-2.95-1.79-6-1.79h-4.82Z" transform="translate(-371.6 -381.5)"/><path d="M488.1,431.82h4.09v25.34q0,6.46,5.83,6.47t5.83-6.47V431.82h4.08v25.57q0,10.14-9.91,10.14t-9.92-10.14Z" transform="translate(-371.6 -381.5)"/><path d="M531.11,441.64h-4.36q-.69-6.28-4.54-6.28-6.71,0-6.7,14.59,0,13.64,6.42,13.63,4.19,0,5.46-7h4.36q-1.87,10.92-9.45,10.93-11,0-11-17.81,0-8.08,2.66-13.13a8.74,8.74,0,0,1,8.26-5.09Q530,431.46,531.11,441.64Z" transform="translate(-371.6 -381.5)"/><path d="M545.2,431.5q10,0,10,18t-10.19,18q-10.18,0-10.19-17.86Q534.83,431.5,545.2,431.5Zm-.27,3.9q-5.92,0-5.92,14.14t6,14q6,0,6-13.9Q551,435.4,544.93,435.4Z" transform="translate(-371.6 -381.5)"/><path d="M481.51,481.27V467.12h3.54a5,5,0,0,1,3.49.92,3.78,3.78,0,0,1,1.15,2.81q0,4-4.32,4h-2.21v6.42Zm1.65-7.94H485c2,0,3-.79,3-2.37a2.42,2.42,0,0,0-.46-1.6,3.06,3.06,0,0,0-2.43-.72h-1.95Z" transform="translate(-371.6 -381.5)"/><path d="M491,481.27V467.12h3.82q4.21,0,4.21,3.67c0,1.78-1,2.91-3,3.38a2.92,2.92,0,0,1,1.58,1.17,11.36,11.36,0,0,1,1,3.39l.22,1c.15.79.26,1.3.32,1.52h-1.82q-.18-1-.54-3.24c-.37-2.12-1.24-3.2-2.61-3.25h-1.51v6.49Zm1.65-8h1.54c2.1,0,3.16-.83,3.16-2.49,0-1.45-.93-2.17-2.79-2.17h-1.91Z" transform="translate(-371.6 -381.5)"/><path d="M500.51,481.14v-14h8.13v1.57h-6.48v4.49h5.44v1.58h-5.44v4.81h6.48v1.57Z" transform="translate(-371.6 -381.5)"/><path d="M509.9,476.91h1.87q.23,3,2.4,3a2.15,2.15,0,0,0,1.63-.65,2.34,2.34,0,0,0,.67-1.72,3,3,0,0,0-2-2.73l-1.88-.87a3.71,3.71,0,0,1-2.5-3.49,3.24,3.24,0,0,1,1.31-2.73,4.11,4.11,0,0,1,2.6-.83q3.51,0,3.86,3.89H516c-.23-1.58-1-2.37-2.23-2.37s-2.09.65-2.09,2a2.27,2.27,0,0,0,1.56,2.1l2.11,1a4.14,4.14,0,0,1,2.77,3.9,4,4,0,0,1-1.28,3.17,4.14,4.14,0,0,1-2.82.91C511.57,481.4,510.18,479.91,509.9,476.91Z" transform="translate(-371.6 -381.5)"/><path d="M519.51,481.14v-14h8.13v1.57h-6.48v4.49h5.44v1.58h-5.44v4.81h6.48v1.57Z" transform="translate(-371.6 -381.5)"/><path d="M529,481.27V467h2l4.42,11.2V467H537v14.28h-1.95l-4.42-11.2v11.2Z" transform="translate(-371.6 -381.5)"/><path d="M538.27,468.69v-1.57h8.5v1.57h-3.42v12.58h-1.68V468.69Z" transform="translate(-371.6 -381.5)"/><path d="M547.9,476.91h1.87q.22,3,2.4,3a2.15,2.15,0,0,0,1.63-.65,2.34,2.34,0,0,0,.67-1.72,3,3,0,0,0-2-2.73l-1.88-.87a3.71,3.71,0,0,1-2.5-3.49,3.24,3.24,0,0,1,1.31-2.73,4.11,4.11,0,0,1,2.6-.83q3.51,0,3.86,3.89H554c-.23-1.58-1-2.37-2.23-2.37s-2.09.65-2.09,2a2.27,2.27,0,0,0,1.56,2.1l2.11,1a4.14,4.14,0,0,1,2.77,3.9,4,4,0,0,1-1.28,3.17,4.14,4.14,0,0,1-2.82.91C549.57,481.4,548.18,479.91,547.9,476.91Z" transform="translate(-371.6 -381.5)"/><path d="M391.43,406.38h4.64q.56,7.33,5.92,7.34a5.39,5.39,0,0,0,4-1.6,5.9,5.9,0,0,0,1.65-4.27q0-4.46-5-6.75L398,398.94q-6.19-2.83-6.19-8.63a8,8,0,0,1,3.25-6.74,10.17,10.17,0,0,1,6.43-2.07q8.67,0,9.55,9.64h-4.46q-.87-5.88-5.5-5.88c-3.46,0-5.19,1.63-5.19,4.87q0,3.39,3.86,5.19l5.23,2.43q6.84,3.12,6.84,9.64a10,10,0,0,1-3.17,7.85,10.22,10.22,0,0,1-7,2.25Q392.49,417.49,391.43,406.38Z" transform="translate(-371.6 -381.5)"/><path d="M426.43,406.93h-8.35l-2.21,10.23h-4.13l8.45-35.66h4.13l8.45,35.66h-4.14Zm-.78-3.63-3.4-15.65-3.39,15.65Z" transform="translate(-371.6 -381.5)"/><path d="M433.82,417.16V381.82H440l3.85,27.36,3.86-27.36h6.2v35.34H450.3V385l-4.68,32.17h-3.49L437.45,385v32.17Z" transform="translate(-371.6 -381.5)"/><path d="M475.23,416.84v-34.7H483c4.29,0,7.18.71,8.68,2.11a8.3,8.3,0,0,1,2.8,6.34q0,6.06-5.79,8.17,6.66,1.83,6.66,8.77a9.17,9.17,0,0,1-2.8,6.83c-1.71,1.66-4.36,2.48-7.94,2.48ZM479.31,397h3.81q7.26,0,7.25-6.06a4.49,4.49,0,0,0-1.83-4.08c-1-.62-2.63-.92-5.05-.92h-4.18Zm0,16.11h4.55q7.38,0,7.39-6,0-6.37-7.85-6.38h-4.09Z" transform="translate(-371.6 -381.5)"/><path d="M497.5,416.84v-35h4.18v31h16.25v4Z" transform="translate(-371.6 -381.5)"/><path d="M524.9,401.79v15.37h-4.13V401.79l-8.45-20h4.27l6.24,15.84,6.2-15.84h4.32Z" transform="translate(-371.6 -381.5)"/><path d="M535.11,416.84v-34.7h20.1V386h-16v11.11h13.45v3.9H539.19v11.89h16v3.9Z" transform="translate(-371.6 -381.5)"/><path d="M481.51,431.27V417.12h3.54a5,5,0,0,1,3.49.92,3.78,3.78,0,0,1,1.15,2.81q0,4-4.32,4h-2.21v6.42Zm1.65-7.94H485c2,0,3-.79,3-2.37a2.42,2.42,0,0,0-.46-1.6,3.06,3.06,0,0,0-2.43-.72h-1.95Z" transform="translate(-371.6 -381.5)"/><path d="M491,431.27V417.12h3.82q4.21,0,4.21,3.67c0,1.78-1,2.91-3,3.38a2.92,2.92,0,0,1,1.58,1.17,11.36,11.36,0,0,1,1,3.39l.22,1c.15.79.26,1.3.32,1.52h-1.82q-.18-1-.54-3.24c-.37-2.12-1.24-3.2-2.61-3.25h-1.51v6.49Zm1.65-8h1.54c2.1,0,3.16-.83,3.16-2.49,0-1.45-.93-2.17-2.79-2.17h-1.91Z" transform="translate(-371.6 -381.5)"/><path d="M500.51,431.14v-14h8.13v1.57h-6.48v4.49h5.44v1.58h-5.44v4.81h6.48v1.57Z" transform="translate(-371.6 -381.5)"/><path d="M509.9,426.91h1.87q.23,3,2.4,3a2.15,2.15,0,0,0,1.63-.65,2.34,2.34,0,0,0,.67-1.72,3,3,0,0,0-2-2.73l-1.88-.87a3.71,3.71,0,0,1-2.5-3.49,3.24,3.24,0,0,1,1.31-2.73,4.11,4.11,0,0,1,2.6-.83q3.51,0,3.86,3.89H516c-.23-1.58-1-2.37-2.23-2.37s-2.09.65-2.09,2a2.27,2.27,0,0,0,1.56,2.1l2.11,1a4.14,4.14,0,0,1,2.77,3.9,4,4,0,0,1-1.28,3.17,4.14,4.14,0,0,1-2.82.91C511.57,431.4,510.18,429.91,509.9,426.91Z" transform="translate(-371.6 -381.5)"/><path d="M519.51,431.14v-14h8.13v1.57h-6.48v4.49h5.44v1.58h-5.44v4.81h6.48v1.57Z" transform="translate(-371.6 -381.5)"/><path d="M529,431.27V417h2l4.42,11.2V417H537v14.28h-1.95l-4.42-11.2v11.2Z" transform="translate(-371.6 -381.5)"/><path d="M538.27,418.69v-1.57h8.5v1.57h-3.42v12.58h-1.68V418.69Z" transform="translate(-371.6 -381.5)"/><path d="M547.9,426.91h1.87q.22,3,2.4,3a2.15,2.15,0,0,0,1.63-.65,2.34,2.34,0,0,0,.67-1.72,3,3,0,0,0-2-2.73l-1.88-.87a3.71,3.71,0,0,1-2.5-3.49,3.24,3.24,0,0,1,1.31-2.73,4.11,4.11,0,0,1,2.6-.83q3.51,0,3.86,3.89H554c-.23-1.58-1-2.37-2.23-2.37s-2.09.65-2.09,2a2.27,2.27,0,0,0,1.56,2.1l2.11,1a4.14,4.14,0,0,1,2.77,3.9,4,4,0,0,1-1.28,3.17,4.14,4.14,0,0,1-2.82.91C549.57,431.4,548.18,429.91,547.9,426.91Z" transform="translate(-371.6 -381.5)"/><path d="M705.29,382.76v182H657.56V481.82h-50v52.79q0,12.4.54,18.47a55.84,55.84,0,0,0,2.26,11.66l-43.19,27.73a81.92,81.92,0,0,1-6-19.2q-1.33-8.4-1.33-26.79V382.76h47.72v58.13h50V382.76Z" transform="translate(-371.6 -381.5)"/><path d="M819.45,382.76l11.2,40.93H757.59v27.46h67.19l-11.87,40.93H757.59v31.73h78.79l-12,40.93H709.86v-182Z" transform="translate(-371.6 -381.5)"/><path d="M883.05,382.76V522.21h63.72l-12.26,42.53H835.32v-182Z" transform="translate(-371.6 -381.5)"/><path d="M988.38,382.76V522.21h63.73l-12.27,42.53H940.65v-182Z" transform="translate(-371.6 -381.5)"/><g id="BONEZONE_PRESENTS" data-name="BONEZONE PRESENTS"><path d="M371.6,565.84v-34.7h7.76c4.29,0,7.18.71,8.68,2.11a8.3,8.3,0,0,1,2.8,6.34q0,6.06-5.79,8.17,6.66,1.83,6.66,8.77a9.21,9.21,0,0,1-2.8,6.83c-1.72,1.66-4.36,2.48-7.94,2.48ZM375.69,546h3.81q7.25,0,7.25-6.06a4.49,4.49,0,0,0-1.83-4.08c-.95-.62-2.64-.92-5.05-.92h-4.18Zm0,16.11h4.54q7.39,0,7.39-6,0-6.37-7.85-6.38h-4.08Z" transform="translate(-371.6 -381.5)"/><path d="M405.2,530.5q10,0,10,18t-10.19,18q-10.18,0-10.19-17.86Q394.83,530.49,405.2,530.5Zm-.27,3.9q-5.93,0-5.92,14.14t6,14q6,0,6-13.9Q411,534.4,404.93,534.4Z" transform="translate(-371.6 -381.5)"/><path d="M418.6,566.16V530.82h4.82l10.93,27.72V530.82h4.08v35.34h-4.82l-10.92-27.72v27.72Z" transform="translate(-371.6 -381.5)"/><path d="M442.1,565.84v-34.7h20.11V535h-16v11.11h13.45v3.9H446.19v11.89h16v3.9Z" transform="translate(-371.6 -381.5)"/><path d="M465.33,565.84v-4.22L481,535H465.83v-3.9h19.74v4.23l-15.88,26.57h16v3.9Z" transform="translate(-371.6 -381.5)"/><path d="M499.2,530.5q10,0,10,18t-10.19,18q-10.18,0-10.19-17.86Q488.83,530.49,499.2,530.5Zm-.27,3.9q-5.93,0-5.92,14.14t6,14q6,0,6-13.9Q505,534.4,498.93,534.4Z" transform="translate(-371.6 -381.5)"/><path d="M512.6,566.16V530.82h4.82l10.93,27.72V530.82h4.08v35.34h-4.82l-10.92-27.72v27.72Z" transform="translate(-371.6 -381.5)"/><path d="M536.1,565.84v-34.7h20.11V535h-16v11.11h13.45v3.9H540.19v11.89h16v3.9Z" transform="translate(-371.6 -381.5)"/><path d="M482.51,580.27V566.12h3.54a5,5,0,0,1,3.49.92,3.78,3.78,0,0,1,1.15,2.81q0,4-4.32,4h-2.21v6.42Zm1.65-7.94H486c2,0,3-.79,3-2.37a2.42,2.42,0,0,0-.46-1.6,3.06,3.06,0,0,0-2.43-.72h-1.95Z" transform="translate(-371.6 -381.5)"/><path d="M492,580.27V566.12h3.82q4.21,0,4.21,3.67c0,1.78-1,2.91-3,3.38a2.92,2.92,0,0,1,1.58,1.17,11.36,11.36,0,0,1,1,3.39l.22,1c.15.79.26,1.3.32,1.52h-1.82q-.18-1-.54-3.24c-.37-2.12-1.24-3.2-2.61-3.25h-1.51v6.49Zm1.65-8h1.54c2.1,0,3.16-.83,3.16-2.49,0-1.45-.93-2.17-2.79-2.17h-1.91Z" transform="translate(-371.6 -381.5)"/><path d="M501.51,580.14v-14h8.13v1.57h-6.48v4.49h5.44v1.58h-5.44v4.81h6.48v1.57Z" transform="translate(-371.6 -381.5)"/><path d="M510.9,575.91h1.87q.22,3,2.4,3a2.15,2.15,0,0,0,1.63-.65,2.34,2.34,0,0,0,.67-1.72,3,3,0,0,0-2-2.73l-1.88-.87a3.71,3.71,0,0,1-2.5-3.49,3.24,3.24,0,0,1,1.31-2.73,4.11,4.11,0,0,1,2.6-.83q3.51,0,3.86,3.89H517c-.23-1.58-1-2.37-2.23-2.37s-2.09.65-2.09,2a2.27,2.27,0,0,0,1.56,2.1l2.11,1a4.14,4.14,0,0,1,2.77,3.9,4,4,0,0,1-1.28,3.17,4.14,4.14,0,0,1-2.82.91C512.57,580.4,511.18,578.91,510.9,575.91Z" transform="translate(-371.6 -381.5)"/><path d="M520.51,580.14v-14h8.13v1.57h-6.48v4.49h5.44v1.58h-5.44v4.81h6.48v1.57Z" transform="translate(-371.6 -381.5)"/><path d="M530,580.27V566h2l4.42,11.2V566H538v14.28h-1.95l-4.42-11.2v11.2Z" transform="translate(-371.6 -381.5)"/><path d="M539.27,567.69v-1.57h8.5v1.57h-3.42v12.58h-1.68V567.69Z" transform="translate(-371.6 -381.5)"/><path d="M548.9,575.91h1.87q.22,3,2.4,3a2.15,2.15,0,0,0,1.63-.65,2.34,2.34,0,0,0,.67-1.72,3,3,0,0,0-2-2.73l-1.88-.87a3.71,3.71,0,0,1-2.5-3.49,3.24,3.24,0,0,1,1.31-2.73,4.11,4.11,0,0,1,2.6-.83q3.51,0,3.86,3.89H555c-.23-1.58-1-2.37-2.23-2.37s-2.09.65-2.09,2a2.27,2.27,0,0,0,1.56,2.1l2.11,1a4.14,4.14,0,0,1,2.77,3.9,4,4,0,0,1-1.28,3.17,4.14,4.14,0,0,1-2.82.91C550.57,580.4,549.18,578.91,548.9,575.91Z" transform="translate(-371.6 -381.5)"/></g><path d="M508.21,490.86H503.8c-.43-3.67-2-5.5-4.82-5.5q-7,0-7,13.77,0,14.64,6.88,14.64c3.49,0,5.23-2,5.23-5.92v-5.74h-5.55v-3.86h9.64v10.93a7.86,7.86,0,0,1-2,5,8.68,8.68,0,0,1-7.2,3.31q-11.2,0-11.2-18.32,0-7.76,2.75-12.67a9.37,9.37,0,0,1,8.72-5Q506.83,481.46,508.21,490.86Z" transform="translate(-371.6 -381.5)"/><path d="M519.41,517.16V481.82h4.17v35.34Z" transform="translate(-371.6 -381.5)"/><path d="M534.51,507.11h4.59q.64,6.48,5.87,6.47,5.88,0,5.88-8.26v-23.5h4.08v23.73q0,11.94-10.23,11.94-5.41,0-8.13-3.91Q535.3,511.75,534.51,507.11Z" transform="translate(-371.6 -381.5)"/><path d="M481.51,531.27V517.12h3.54a5,5,0,0,1,3.49.92,3.78,3.78,0,0,1,1.15,2.81q0,4-4.32,4h-2.21v6.42Zm1.65-7.94H485c2,0,3-.79,3-2.37a2.42,2.42,0,0,0-.46-1.6,3.06,3.06,0,0,0-2.43-.72h-1.95Z" transform="translate(-371.6 -381.5)"/><path d="M491,531.27V517.12h3.82q4.21,0,4.21,3.67c0,1.78-1,2.91-3,3.38a2.92,2.92,0,0,1,1.58,1.17,11.36,11.36,0,0,1,1,3.39l.22,1c.15.79.26,1.3.32,1.52h-1.82q-.18-1-.54-3.24c-.37-2.12-1.24-3.2-2.61-3.25h-1.51v6.49Zm1.65-8h1.54c2.1,0,3.16-.83,3.16-2.49,0-1.45-.93-2.17-2.79-2.17h-1.91Z" transform="translate(-371.6 -381.5)"/><path d="M500.51,531.14v-14h8.13v1.57h-6.48v4.49h5.44v1.58h-5.44v4.81h6.48v1.57Z" transform="translate(-371.6 -381.5)"/><path d="M509.9,526.91h1.87q.23,3,2.4,3a2.15,2.15,0,0,0,1.63-.65,2.34,2.34,0,0,0,.67-1.72,3,3,0,0,0-2-2.73l-1.88-.87a3.71,3.71,0,0,1-2.5-3.49,3.24,3.24,0,0,1,1.31-2.73,4.11,4.11,0,0,1,2.6-.83q3.51,0,3.86,3.89H516c-.23-1.58-1-2.37-2.23-2.37s-2.09.65-2.09,2a2.27,2.27,0,0,0,1.56,2.1l2.11,1a4.14,4.14,0,0,1,2.77,3.9,4,4,0,0,1-1.28,3.17,4.14,4.14,0,0,1-2.82.91C511.57,531.4,510.18,529.91,509.9,526.91Z" transform="translate(-371.6 -381.5)"/><path d="M519.51,531.14v-14h8.13v1.57h-6.48v4.49h5.44v1.58h-5.44v4.81h6.48v1.57Z" transform="translate(-371.6 -381.5)"/><path d="M529,531.27V517h2l4.42,11.2V517H537v14.28h-1.95l-4.42-11.2v11.2Z" transform="translate(-371.6 -381.5)"/><path d="M538.27,518.69v-1.57h8.5v1.57h-3.42v12.58h-1.68V518.69Z" transform="translate(-371.6 -381.5)"/><path d="M547.9,526.91h1.87q.22,3,2.4,3a2.15,2.15,0,0,0,1.63-.65,2.34,2.34,0,0,0,.67-1.72,3,3,0,0,0-2-2.73l-1.88-.87a3.71,3.71,0,0,1-2.5-3.49,3.24,3.24,0,0,1,1.31-2.73,4.11,4.11,0,0,1,2.6-.83q3.51,0,3.86,3.89H554c-.23-1.58-1-2.37-2.23-2.37s-2.09.65-2.09,2a2.27,2.27,0,0,0,1.56,2.1l2.11,1a4.14,4.14,0,0,1,2.77,3.9,4,4,0,0,1-1.28,3.17,4.14,4.14,0,0,1-2.82.91C549.57,531.4,548.18,529.91,547.9,526.91Z" transform="translate(-371.6 -381.5)"/></svg>
