<?xml version="1.0" encoding="utf-8"?>
<!-- Generator: Adobe Illustrator 16.0.0, SVG Export Plug-In . SVG Version: 6.00 Build 0)  -->
<!DOCTYPE svg PUBLIC "-//W3C//DTD SVG 1.1//EN" "http://www.w3.org/Graphics/SVG/1.1/DTD/svg11.dtd">
<svg version="1.1" id="Layer_1" xmlns="http://www.w3.org/2000/svg" xmlns:xlink="http://www.w3.org/1999/xlink" x="0px" y="0px"
	 width="5215.684px" height="2342.487px" viewBox="0 0 5215.684 2342.487" enable-background="new 0 0 5215.684 2342.487"
	 xml:space="preserve">
<g>
	<g>
		<path fill="none" d="M2165.813,430.246c-183.719,0-333.188,149.467-333.188,333.197v333.188h333.188
			c183.719,0,333.188-149.457,333.188-333.188S2349.531,430.246,2165.813,430.246z"/>
		<path fill="none" d="M4231.178,772.551c1.861,182.145,150.578,329.736,333.143,329.736c183.721,0,333.188-149.457,333.188-333.187
			s-149.467-333.187-333.188-333.187c-181.43,0-329.441,145.762-333.1,326.343l0.076,0.075
			C4231.297,765.748,4231.252,769.152,4231.178,772.551z"/>
	</g>
	<g>
		<path d="M4897.378,626.395v142.743c0,183.73-149.468,333.187-333.187,333.187c-181.559,0-329.646-145.967-333.105-326.724
			c0.028-1.018,0.07-2.032,0.092-3.051c0.074-3.398,0.119-6.803,0.119-10.219l-0.076-0.075l-0.128-0.128
			c3.745-180.505,151.724-326.188,333.099-326.188v-0.059c93.857,0.169,180.779,37.153,245.825,103.952
			c4.161-50.49,18.67-98.084,41.797-140.422c-82.319-62.103-183.753-96.794-288.165-96.812v0.068
			c-256.963,0.294-465.92,209.439-465.92,466.469c0,1.842,0.014,3.682,0.035,5.519c-6.511,178.039-153.339,320.862-332.928,320.862
			c-180.293,0-327.584-143.938-333.016-322.947c0.059-3.035,0.098-6.076,0.098-9.126v-13.912
			c6.75-177.819,153.475-320.388,332.906-320.388V295.871c-257.199,0-466.451,209.261-466.451,466.461
			c0,3.553,0.047,7.096,0.125,10.629c-5.055,179.346-152.506,323.672-333.043,323.672c-183.615,0-333.016-149.291-333.184-332.88
			c0-0.103,0.002-0.206,0.002-0.31c0-257.211-209.262-466.472-466.473-466.472c-141.482,0-268.449,63.327-354.064,163.12
			c-40.468-95.753-135.345-163.121-245.66-163.121c-79.534,0-151.032,35.028-199.913,90.454
			c-48.88-55.426-120.378-90.454-199.912-90.454c-146.974,0-266.55,119.578-266.55,266.55V620.7v142.743
			c0,183.73-149.468,333.188-333.187,333.188c-183.719,0-333.187-149.457-333.187-333.188s149.468-333.197,333.187-333.197v-0.059
			c93.858,0.17,180.78,37.153,245.826,103.953c4.161-50.49,18.67-98.084,41.797-140.422
			c-82.32-62.103-183.753-96.794-288.165-96.813v0.068c-256.962,0.294-465.919,209.439-465.919,466.469
			c0,257.201,209.251,466.463,466.462,466.463s466.462-209.262,466.462-466.396l0.256-208.14
			c4.227-69.71,62.263-125.124,133.019-125.124c73.492,0,133.274,59.783,133.274,133.275v599.746h133.275V763.443h0V563.521
			c0-73.492,59.782-133.275,133.275-133.275c73.492,0,133.274,59.783,133.274,133.275v199.922v399.824v799.648h133.274v-733.01
			h333.188c169.693,0,318.502-91.088,400.129-226.928c81.664,135.678,229.943,226.93,399.514,226.93
			c169.619,0,318.375-91.008,400.023-226.751c81.793,135.128,230.201,225.638,399.357,225.638
			c167.967,0,315.475-89.247,397.619-222.8c81.271,137.322,230.93,229.605,401.736,229.605
			c257.211,0,466.461-209.262,466.461-466.396l0.303-246.019L4897.378,626.395z M2165.813,1096.631h-333.188V763.443
			c0-183.73,149.469-333.197,333.188-333.197S2499,579.713,2499,763.443S2349.531,1096.631,2165.813,1096.631z"/>
	</g>
</g>
</svg>
