<?xml version="1.0" encoding="utf-8"?>
<!-- Generator: Adobe Illustrator 16.0.0, SVG Export Plug-In . SVG Version: 6.00 Build 0)  -->
<!DOCTYPE svg PUBLIC "-//W3C//DTD SVG 1.1//EN" "http://www.w3.org/Graphics/SVG/1.1/DTD/svg11.dtd">
<svg version="1.1" id="Layer_1" xmlns="http://www.w3.org/2000/svg" xmlns:xlink="http://www.w3.org/1999/xlink" x="0px" y="0px"
	 width="246.131px" height="83.212px" viewBox="0 0 246.131 83.212" enable-background="new 0 0 246.131 83.212"
	 xml:space="preserve">
<g>
	<g>
		<path fill="none" d="M103.115,6.708c-9.171,0-16.631,7.461-16.631,16.632v16.631h16.631c9.17,0,16.631-7.46,16.631-16.631
			C119.746,14.168,112.285,6.708,103.115,6.708z"/>
		<path fill="none" d="M206.209,23.794c0.093,9.092,7.517,16.459,16.629,16.459c9.17,0,16.631-7.46,16.631-16.631
			c0-9.171-7.461-16.632-16.631-16.632c-9.057,0-16.444,7.276-16.627,16.29l0.004,0.004
			C206.216,23.455,206.213,23.625,206.209,23.794z"/>
	</g>
	<g>
		<path d="M239.464,16.499v7.125c0,9.171-7.461,16.631-16.631,16.631c-9.063,0-16.455-7.286-16.627-16.309
			c0.001-0.051,0.003-0.102,0.004-0.152c0.004-0.169,0.006-0.339,0.006-0.51l-0.004-0.004l-0.006-0.006
			c0.187-9.01,7.573-16.282,16.627-16.282V6.989c4.685,0.008,9.024,1.855,12.271,5.189c0.208-2.521,0.932-4.896,2.086-7.009
			c-4.109-3.1-9.172-4.832-14.384-4.833v0.003c-12.827,0.015-23.257,10.455-23.257,23.285c0,0.092,0.001,0.184,0.001,0.275
			c-0.325,8.887-7.654,16.016-16.618,16.016c-9,0-16.352-7.185-16.623-16.121c0.003-0.151,0.005-0.303,0.005-0.456v-0.694
			c0.337-8.876,7.661-15.993,16.618-15.993V0c-12.838,0-23.284,10.445-23.284,23.284c0,0.177,0.002,0.354,0.006,0.53
			c-0.252,8.952-7.612,16.156-16.624,16.156c-9.166,0-16.623-7.452-16.631-16.616c0-0.005,0-0.01,0-0.016
			c0-12.839-10.445-23.285-23.285-23.285c-7.062,0-13.4,3.161-17.673,8.143c-2.02-4.78-6.756-8.143-12.262-8.143
			c-3.97,0-7.539,1.749-9.979,4.516c-2.44-2.767-6.009-4.516-9.979-4.516c-7.336,0-13.305,5.969-13.305,13.306v2.854v7.125
			c0,9.171-7.461,16.631-16.631,16.631c-9.171,0-16.631-7.46-16.631-16.631c0-9.171,7.46-16.632,16.631-16.632V6.705
			c4.685,0.008,9.023,1.854,12.271,5.189c0.208-2.521,0.932-4.896,2.086-7.009c-4.109-3.1-9.172-4.832-14.384-4.833v0.003
			C10.43,0.07,0,10.51,0,23.339c0,12.838,10.445,23.284,23.284,23.284c12.839,0,23.284-10.446,23.284-23.281l0.013-10.39
			c0.211-3.479,3.108-6.246,6.64-6.246c3.668,0,6.652,2.984,6.652,6.653v29.937h6.652V23.339l0,0V13.36
			c0-3.669,2.984-6.653,6.653-6.653s6.652,2.984,6.652,6.653v9.979v19.958v39.916h6.653V46.624h16.631
			c8.47,0,15.898-4.547,19.973-11.328c4.076,6.772,11.478,11.328,19.942,11.328c8.466,0,15.892-4.542,19.967-11.319
			c4.083,6.745,11.491,11.263,19.935,11.263c8.384,0,15.747-4.455,19.848-11.121c4.057,6.854,11.527,11.461,20.053,11.461
			c12.839,0,23.284-10.446,23.284-23.281l0.015-12.28L239.464,16.499z M103.115,39.971H86.483V23.339
			c0-9.171,7.46-16.632,16.631-16.632c9.17,0,16.631,7.461,16.631,16.632C119.746,32.511,112.285,39.971,103.115,39.971z"/>
	</g>
</g>
</svg>
